<svg id="visual" viewBox="0 0 1920 1080" width="1920" height="1080" xmlns="http://www.w3.org/2000/svg" xmlns:xlink="http://www.w3.org/1999/xlink" version="1.1"><rect x="0" y="0" width="1920" height="1080" fill="#fbe685"></rect><path d="M0 751L45.7 751.2C91.3 751.3 182.7 751.7 274.2 759.8C365.7 768 457.3 784 548.8 791C640.3 798 731.7 796 823 775.3C914.3 754.7 1005.7 715.3 1097 706C1188.3 696.7 1279.7 717.3 1371.2 710.3C1462.7 703.3 1554.3 668.7 1645.8 663.2C1737.3 657.7 1828.7 681.3 1874.3 693.2L1920 705L1920 1081L1874.3 1081C1828.7 1081 1737.3 1081 1645.8 1081C1554.3 1081 1462.7 1081 1371.2 1081C1279.7 1081 1188.3 1081 1097 1081C1005.7 1081 914.3 1081 823 1081C731.7 1081 640.3 1081 548.8 1081C457.3 1081 365.7 1081 274.2 1081C182.7 1081 91.3 1081 45.7 1081L0 1081Z" fill="#ff9999"></path><path d="M0 767L45.7 764C91.3 761 182.7 755 274.2 763.3C365.7 771.7 457.3 794.3 548.8 797.5C640.3 800.7 731.7 784.3 823 785.2C914.3 786 1005.7 804 1097 798.2C1188.3 792.3 1279.7 762.7 1371.2 762.3C1462.7 762 1554.3 791 1645.8 798C1737.3 805 1828.7 790 1874.3 782.5L1920 775L1920 1081L1874.3 1081C1828.7 1081 1737.3 1081 1645.8 1081C1554.3 1081 1462.7 1081 1371.2 1081C1279.7 1081 1188.3 1081 1097 1081C1005.7 1081 914.3 1081 823 1081C731.7 1081 640.3 1081 548.8 1081C457.3 1081 365.7 1081 274.2 1081C182.7 1081 91.3 1081 45.7 1081L0 1081Z" fill="#ff8a89"></path><path d="M0 823L45.7 823.3C91.3 823.7 182.7 824.3 274.2 834.5C365.7 844.7 457.3 864.3 548.8 878.5C640.3 892.7 731.7 901.3 823 901.3C914.3 901.3 1005.7 892.7 1097 885.2C1188.3 877.7 1279.7 871.3 1371.2 862.7C1462.7 854 1554.3 843 1645.8 830C1737.3 817 1828.7 802 1874.3 794.5L1920 787L1920 1081L1874.3 1081C1828.7 1081 1737.3 1081 1645.8 1081C1554.3 1081 1462.7 1081 1371.2 1081C1279.7 1081 1188.3 1081 1097 1081C1005.7 1081 914.3 1081 823 1081C731.7 1081 640.3 1081 548.8 1081C457.3 1081 365.7 1081 274.2 1081C182.7 1081 91.3 1081 45.7 1081L0 1081Z" fill="#ff7a79"></path><path d="M0 877L45.7 881.5C91.3 886 182.7 895 274.2 906.8C365.7 918.7 457.3 933.3 548.8 935.7C640.3 938 731.7 928 823 927.5C914.3 927 1005.7 936 1097 936.7C1188.3 937.3 1279.7 929.7 1371.2 927C1462.7 924.3 1554.3 926.7 1645.8 923C1737.3 919.3 1828.7 909.7 1874.3 904.8L1920 900L1920 1081L1874.3 1081C1828.7 1081 1737.3 1081 1645.8 1081C1554.3 1081 1462.7 1081 1371.2 1081C1279.7 1081 1188.3 1081 1097 1081C1005.7 1081 914.3 1081 823 1081C731.7 1081 640.3 1081 548.8 1081C457.3 1081 365.7 1081 274.2 1081C182.7 1081 91.3 1081 45.7 1081L0 1081Z" fill="#ff6968"></path><path d="M0 978L45.7 986.8C91.3 995.7 182.7 1013.3 274.2 1017.7C365.7 1022 457.3 1013 548.8 1009.8C640.3 1006.7 731.7 1009.3 823 1005.8C914.3 1002.3 1005.7 992.7 1097 990.2C1188.3 987.7 1279.7 992.3 1371.2 994.2C1462.7 996 1554.3 995 1645.8 993.7C1737.3 992.3 1828.7 990.7 1874.3 989.8L1920 989L1920 1081L1874.3 1081C1828.7 1081 1737.3 1081 1645.8 1081C1554.3 1081 1462.7 1081 1371.2 1081C1279.7 1081 1188.3 1081 1097 1081C1005.7 1081 914.3 1081 823 1081C731.7 1081 640.3 1081 548.8 1081C457.3 1081 365.7 1081 274.2 1081C182.7 1081 91.3 1081 45.7 1081L0 1081Z" fill="#ff5757"></path></svg>