<svg xmlns="http://www.w3.org/2000/svg" width="800" height="800" viewBox="0 -16 544 544">
  <path d="M383 43c7-11 22-15 33-9a255 255 0 0 1 105 327c-21 47-57 89-105 117a24 24 0 1 1-24-42 207 207 0 0 0 76-285c-18-30-44-56-76-75-11-7-15-21-9-33ZM176 480H0V32h133c43 1 80 29 92 71l46 165c3 10-4 20-15 20h-16v64c0 18-14 32-32 32h-32v96Zm192-363a24 24 0 0 0-24 42 111 111 0 0 1 41 154c-10 16-24 30-41 40a24 24 0 0 0 24 42 159 159 0 0 0 66-205c-13-29-36-55-66-73Zm-48 84a24 24 0 0 0-24 41l6 6a16 16 0 0 1 2 8 16 16 0 0 1-2 8l-6 6a24 24 0 0 0 24 41 64 64 0 0 0 26-81c-5-12-14-22-26-29Zm-144-41a32 32 0 1 0-64 0 32 32 0 0 0 64 0Z"/>
</svg>
