<svg xmlns="http://www.w3.org/2000/svg" xmlns:xlink="http://www.w3.org/1999/xlink" id="visual" viewBox="0 0 1980 1080" width="1980" height="1080" version="1.1"><g stroke-width="1" stroke-linejoin="bevel"><path d="M999 505.9L1075 597.1L1054 490.9Z" fill="#848484" stroke="#848484"/><path d="M999 505.9L1004 622.1L1075 597.1Z" fill="#807c7c" stroke="#807c7c"/><path d="M1004 622.1L1091 664.3L1075 597.1Z" fill="#a0a4a8" stroke="#a0a4a8"/><path d="M1075 597.1L1187 567.1L1054 490.9Z" fill="#383434" stroke="#383434"/><path d="M1091 664.3L1187 567.1L1075 597.1Z" fill="#706c6c" stroke="#706c6c"/><path d="M968 375.7L903 463.9L999 505.9Z" fill="#807c7c" stroke="#807c7c"/><path d="M999 505.9L882 588.1L1004 622.1Z" fill="#383434" stroke="#383434"/><path d="M903 463.9L882 588.1L999 505.9Z" fill="#302c2c" stroke="#302c2c"/><path d="M1004 622.1L967 696.3L1091 664.3Z" fill="#848484" stroke="#848484"/><path d="M882 588.1L967 696.3L1004 622.1Z" fill="#807c7c" stroke="#807c7c"/><path d="M1187 567.1L1189 460.9L1054 490.9Z" fill="#504c4c" stroke="#504c4c"/><path d="M1054 490.9L968 375.7L999 505.9Z" fill="#383434" stroke="#383434"/><path d="M1064 358.7L968 375.7L1054 490.9Z" fill="#989494" stroke="#989494"/><path d="M1176 382.7L1064 358.7L1054 490.9Z" fill="#807c7c" stroke="#807c7c"/><path d="M882 588.1L919 706.3L967 696.3Z" fill="#706c6c" stroke="#706c6c"/><path d="M1161 752.5L1168 716.3L1091 664.3Z" fill="#807c7c" stroke="#807c7c"/><path d="M1091 664.3L1168 716.3L1187 567.1Z" fill="#504c4c" stroke="#504c4c"/><path d="M971 772.5L1091 664.3L967 696.3Z" fill="#302c2c" stroke="#302c2c"/><path d="M1304 576.1L1252 521.9L1187 567.1Z" fill="#a0a4a8" stroke="#a0a4a8"/><path d="M1187 567.1L1252 521.9L1189 460.9Z" fill="#302c2c" stroke="#302c2c"/><path d="M1293 369.7L1176 382.7L1189 460.9Z" fill="#989494" stroke="#989494"/><path d="M1189 460.9L1176 382.7L1054 490.9Z" fill="#807c7c" stroke="#807c7c"/><path d="M919 706.3L971 772.5L967 696.3Z" fill="#706c6c" stroke="#706c6c"/><path d="M1099 811.5L1161 752.5L1091 664.3Z" fill="#302c2c" stroke="#302c2c"/><path d="M1311 695.3L1304 576.1L1187 567.1Z" fill="#a0a4a8" stroke="#a0a4a8"/><path d="M903 463.9L800 557.1L882 588.1Z" fill="#989494" stroke="#989494"/><path d="M882 588.1L772 666.3L919 706.3Z" fill="#989494" stroke="#989494"/><path d="M919 706.3L907 817.5L971 772.5Z" fill="#605c5c" stroke="#605c5c"/><path d="M796 457.9L800 557.1L903 463.9Z" fill="#807c7c" stroke="#807c7c"/><path d="M970 306.5L925 328.5L968 375.7Z" fill="#807c7c" stroke="#807c7c"/><path d="M968 375.7L864 363.7L903 463.9Z" fill="#504c4c" stroke="#504c4c"/><path d="M970 306.5L968 375.7L1064 358.7Z" fill="#484444" stroke="#484444"/><path d="M1095 271.5L970 306.5L1064 358.7Z" fill="#504c4c" stroke="#504c4c"/><path d="M925 328.5L864 363.7L968 375.7Z" fill="#807c7c" stroke="#807c7c"/><path d="M864 363.7L796 457.9L903 463.9Z" fill="#807c7c" stroke="#807c7c"/><path d="M1311 695.3L1187 567.1L1168 716.3Z" fill="#302c2c" stroke="#302c2c"/><path d="M1252 521.9L1293 369.7L1189 460.9Z" fill="#383434" stroke="#383434"/><path d="M971 772.5L1099 811.5L1091 664.3Z" fill="#605c5c" stroke="#605c5c"/><path d="M1176 382.7L1095 271.5L1064 358.7Z" fill="#383434" stroke="#383434"/><path d="M700 610.1L772 666.3L800 557.1Z" fill="#383434" stroke="#383434"/><path d="M800 557.1L772 666.3L882 588.1Z" fill="#807c7c" stroke="#807c7c"/><path d="M776 789.5L907 817.5L919 706.3Z" fill="#807c7c" stroke="#807c7c"/><path d="M971 772.5L962 854.6L1099 811.5Z" fill="#383434" stroke="#383434"/><path d="M1285 781.5L1168 716.3L1161 752.5Z" fill="#848484" stroke="#848484"/><path d="M1285 781.5L1311 695.3L1168 716.3Z" fill="#807c7c" stroke="#807c7c"/><path d="M864 363.7L779 383.7L796 457.9Z" fill="#807c7c" stroke="#807c7c"/><path d="M683 523.9L700 610.1L800 557.1Z" fill="#484444" stroke="#484444"/><path d="M806 320.5L779 383.7L864 363.7Z" fill="#383434" stroke="#383434"/><path d="M806 320.5L864 363.7L925 328.5Z" fill="#989494" stroke="#989494"/><path d="M1379 459.9L1252 521.9L1304 576.1Z" fill="#383434" stroke="#383434"/><path d="M1379 459.9L1293 369.7L1252 521.9Z" fill="#484444" stroke="#484444"/><path d="M1176 382.7L1212 275.5L1095 271.5Z" fill="#807c7c" stroke="#807c7c"/><path d="M907 817.5L962 854.6L971 772.5Z" fill="#383434" stroke="#383434"/><path d="M1293 369.7L1212 275.5L1176 382.7Z" fill="#302c2c" stroke="#302c2c"/><path d="M812 230.4L806 320.5L925 328.5Z" fill="#484444" stroke="#484444"/><path d="M812 230.4L925 328.5L890 174.4Z" fill="#706c6c" stroke="#706c6c"/><path d="M1158 902.6L1285 781.5L1161 752.5Z" fill="#706c6c" stroke="#706c6c"/><path d="M1158 902.6L1161 752.5L1099 811.5Z" fill="#504c4c" stroke="#504c4c"/><path d="M962 854.6L1111 885.6L1099 811.5Z" fill="#807c7c" stroke="#807c7c"/><path d="M683 523.9L800 557.1L796 457.9Z" fill="#504c4c" stroke="#504c4c"/><path d="M772 666.3L776 789.5L919 706.3Z" fill="#504c4c" stroke="#504c4c"/><path d="M1398 615.1L1379 459.9L1304 576.1Z" fill="#302c2c" stroke="#302c2c"/><path d="M1293 369.7L1279 270.5L1212 275.5Z" fill="#807c7c" stroke="#807c7c"/><path d="M1371 813.5L1368 679.3L1311 695.3Z" fill="#605c5c" stroke="#605c5c"/><path d="M1311 695.3L1368 679.3L1304 576.1Z" fill="#484444" stroke="#484444"/><path d="M695 773.5L776 789.5L772 666.3Z" fill="#484444" stroke="#484444"/><path d="M907 817.5L860 884.6L962 854.6Z" fill="#605c5c" stroke="#605c5c"/><path d="M669 370.7L796 457.9L779 383.7Z" fill="#807c7c" stroke="#807c7c"/><path d="M669 370.7L683 523.9L796 457.9Z" fill="#484444" stroke="#484444"/><path d="M1060 170.4L1009 190.4L1095 271.5Z" fill="#807c7c" stroke="#807c7c"/><path d="M1095 271.5L1009 190.4L970 306.5Z" fill="#989494" stroke="#989494"/><path d="M1368 679.3L1398 615.1L1304 576.1Z" fill="#807c7c" stroke="#807c7c"/><path d="M1418 263.5L1279 270.5L1293 369.7Z" fill="#848484" stroke="#848484"/><path d="M1216 190.4L1060 170.4L1095 271.5Z" fill="#605c5c" stroke="#605c5c"/><path d="M1155 950.8L1158 902.6L1111 885.6Z" fill="#807c7c" stroke="#807c7c"/><path d="M1111 885.6L1158 902.6L1099 811.5Z" fill="#848484" stroke="#848484"/><path d="M1464 407.7L1388 402.7L1379 459.9Z" fill="#807c7c" stroke="#807c7c"/><path d="M1379 459.9L1388 402.7L1293 369.7Z" fill="#504c4c" stroke="#504c4c"/><path d="M1216 190.4L1095 271.5L1212 275.5Z" fill="#848484" stroke="#848484"/><path d="M776 789.5L860 884.6L907 817.5Z" fill="#807c7c" stroke="#807c7c"/><path d="M1103 986.8L1155 950.8L1111 885.6Z" fill="#605c5c" stroke="#605c5c"/><path d="M700 610.1L680 691.3L772 666.3Z" fill="#605c5c" stroke="#605c5c"/><path d="M776 789.5L791 913.6L860 884.6Z" fill="#807c7c" stroke="#807c7c"/><path d="M621 596.1L680 691.3L700 610.1Z" fill="#383434" stroke="#383434"/><path d="M890 174.4L970 306.5L1009 190.4Z" fill="#848484" stroke="#848484"/><path d="M890 174.4L925 328.5L970 306.5Z" fill="#484444" stroke="#484444"/><path d="M697 309.5L669 370.7L779 383.7Z" fill="#605c5c" stroke="#605c5c"/><path d="M1254 171.4L1216 190.4L1279 270.5Z" fill="#302c2c" stroke="#302c2c"/><path d="M1279 270.5L1216 190.4L1212 275.5Z" fill="#a0a4a8" stroke="#a0a4a8"/><path d="M1013 91.2L890 174.4L1009 190.4Z" fill="#807c7c" stroke="#807c7c"/><path d="M697 309.5L779 383.7L806 320.5Z" fill="#807c7c" stroke="#807c7c"/><path d="M683 523.9L621 596.1L700 610.1Z" fill="#a0a4a8" stroke="#a0a4a8"/><path d="M680 691.3L695 773.5L772 666.3Z" fill="#706c6c" stroke="#706c6c"/><path d="M1158 902.6L1302 869.6L1285 781.5Z" fill="#807c7c" stroke="#807c7c"/><path d="M1285 781.5L1371 813.5L1311 695.3Z" fill="#383434" stroke="#383434"/><path d="M1484 696.3L1459 600.1L1398 615.1Z" fill="#302c2c" stroke="#302c2c"/><path d="M1103 986.8L1111 885.6L973 995.8Z" fill="#605c5c" stroke="#605c5c"/><path d="M1158 902.6L1278 994.8L1302 869.6Z" fill="#848484" stroke="#848484"/><path d="M812 230.4L697 309.5L806 320.5Z" fill="#302c2c" stroke="#302c2c"/><path d="M674 199.4L697 309.5L812 230.4Z" fill="#383434" stroke="#383434"/><path d="M1484 696.3L1398 615.1L1368 679.3Z" fill="#484444" stroke="#484444"/><path d="M1398 615.1L1459 600.1L1379 459.9Z" fill="#504c4c" stroke="#504c4c"/><path d="M601 467.9L621 596.1L683 523.9Z" fill="#807c7c" stroke="#807c7c"/><path d="M680 691.3L601 763.5L695 773.5Z" fill="#383434" stroke="#383434"/><path d="M1302 869.6L1371 813.5L1285 781.5Z" fill="#989494" stroke="#989494"/><path d="M1364 164.4L1254 171.4L1279 270.5Z" fill="#989494" stroke="#989494"/><path d="M1105 73.2L1013 91.2L1060 170.4Z" fill="#484444" stroke="#484444"/><path d="M725 881.6L791 913.6L776 789.5Z" fill="#807c7c" stroke="#807c7c"/><path d="M973 995.8L1111 885.6L962 854.6Z" fill="#848484" stroke="#848484"/><path d="M973 995.8L962 854.6L865 969.8Z" fill="#302c2c" stroke="#302c2c"/><path d="M1278 994.8L1368 870.6L1302 869.6Z" fill="#383434" stroke="#383434"/><path d="M1497 457.9L1464 407.7L1379 459.9Z" fill="#706c6c" stroke="#706c6c"/><path d="M1388 402.7L1418 263.5L1293 369.7Z" fill="#504c4c" stroke="#504c4c"/><path d="M603 362.7L601 467.9L669 370.7Z" fill="#706c6c" stroke="#706c6c"/><path d="M669 370.7L601 467.9L683 523.9Z" fill="#706c6c" stroke="#706c6c"/><path d="M865 969.8L962 854.6L860 884.6Z" fill="#302c2c" stroke="#302c2c"/><path d="M791 913.6L865 969.8L860 884.6Z" fill="#484444" stroke="#484444"/><path d="M1105 73.2L1060 170.4L1216 190.4Z" fill="#a0a4a8" stroke="#a0a4a8"/><path d="M1060 170.4L1013 91.2L1009 190.4Z" fill="#484444" stroke="#484444"/><path d="M695 773.5L725 881.6L776 789.5Z" fill="#484444" stroke="#484444"/><path d="M791 913.6L809 984.8L865 969.8Z" fill="#383434" stroke="#383434"/><path d="M627 860.6L725 881.6L695 773.5Z" fill="#706c6c" stroke="#706c6c"/><path d="M1302 869.6L1368 870.6L1371 813.5Z" fill="#a0a4a8" stroke="#a0a4a8"/><path d="M1371 813.5L1484 696.3L1368 679.3Z" fill="#807c7c" stroke="#807c7c"/><path d="M1278 994.8L1158 902.6L1155 950.8Z" fill="#302c2c" stroke="#302c2c"/><path d="M488 601.1L598 675.3L621 596.1Z" fill="#848484" stroke="#848484"/><path d="M621 596.1L598 675.3L680 691.3Z" fill="#605c5c" stroke="#605c5c"/><path d="M1459 600.1L1497 457.9L1379 459.9Z" fill="#989494" stroke="#989494"/><path d="M1467 815.5L1484 696.3L1371 813.5Z" fill="#848484" stroke="#848484"/><path d="M1459 600.1L1562 599.1L1497 457.9Z" fill="#989494" stroke="#989494"/><path d="M1013 91.2L859 116.2L890 174.4Z" fill="#848484" stroke="#848484"/><path d="M890 174.4L800 121.2L812 230.4Z" fill="#484444" stroke="#484444"/><path d="M1498 280.5L1418 263.5L1464 407.7Z" fill="#383434" stroke="#383434"/><path d="M1464 407.7L1418 263.5L1388 402.7Z" fill="#484444" stroke="#484444"/><path d="M576 277.5L603 362.7L697 309.5Z" fill="#383434" stroke="#383434"/><path d="M697 309.5L603 362.7L669 370.7Z" fill="#807c7c" stroke="#807c7c"/><path d="M1189 63.2L1216 190.4L1254 171.4Z" fill="#989494" stroke="#989494"/><path d="M1189 63.2L1105 73.2L1216 190.4Z" fill="#989494" stroke="#989494"/><path d="M714 73.2L800 121.2L806 0Z" fill="#706c6c" stroke="#706c6c"/><path d="M598 675.3L601 763.5L680 691.3Z" fill="#989494" stroke="#989494"/><path d="M857 0L859 116.2L1013 91.2Z" fill="#383434" stroke="#383434"/><path d="M859 116.2L800 121.2L890 174.4Z" fill="#807c7c" stroke="#807c7c"/><path d="M683 1004.8L791 913.6L725 881.6Z" fill="#848484" stroke="#848484"/><path d="M683 1004.8L809 984.8L791 913.6Z" fill="#383434" stroke="#383434"/><path d="M860 1080L1013 1080L973 995.8Z" fill="#848484" stroke="#848484"/><path d="M1418 263.5L1364 164.4L1279 270.5Z" fill="#383434" stroke="#383434"/><path d="M1368 870.6L1467 815.5L1371 813.5Z" fill="#a0a4a8" stroke="#a0a4a8"/><path d="M1213 1080L1155 950.8L1103 986.8Z" fill="#383434" stroke="#383434"/><path d="M1213 1080L1278 994.8L1155 950.8Z" fill="#a0a4a8" stroke="#a0a4a8"/><path d="M1368 870.6L1493 857.6L1467 815.5Z" fill="#848484" stroke="#848484"/><path d="M800 121.2L674 199.4L812 230.4Z" fill="#484444" stroke="#484444"/><path d="M1285 85.2L1189 63.2L1254 171.4Z" fill="#302c2c" stroke="#302c2c"/><path d="M601 763.5L627 860.6L695 773.5Z" fill="#989494" stroke="#989494"/><path d="M1578 719.3L1562 599.1L1484 696.3Z" fill="#504c4c" stroke="#504c4c"/><path d="M1484 696.3L1562 599.1L1459 600.1Z" fill="#848484" stroke="#848484"/><path d="M1551 359.7L1498 280.5L1464 407.7Z" fill="#807c7c" stroke="#807c7c"/><path d="M1364 164.4L1285 85.2L1254 171.4Z" fill="#504c4c" stroke="#504c4c"/><path d="M603 105.2L624 229.4L674 199.4Z" fill="#605c5c" stroke="#605c5c"/><path d="M674 199.4L624 229.4L697 309.5Z" fill="#302c2c" stroke="#302c2c"/><path d="M1551 359.7L1464 407.7L1497 457.9Z" fill="#807c7c" stroke="#807c7c"/><path d="M1491 225.4L1393 131.2L1364 164.4Z" fill="#807c7c" stroke="#807c7c"/><path d="M1364 164.4L1393 131.2L1285 85.2Z" fill="#989494" stroke="#989494"/><path d="M1013 1080L1058 1080L973 995.8Z" fill="#706c6c" stroke="#706c6c"/><path d="M973 995.8L1058 1080L1103 986.8Z" fill="#807c7c" stroke="#807c7c"/><path d="M860 1080L973 995.8L865 969.8Z" fill="#383434" stroke="#383434"/><path d="M624 229.4L576 277.5L697 309.5Z" fill="#504c4c" stroke="#504c4c"/><path d="M485 492.9L621 596.1L601 467.9Z" fill="#807c7c" stroke="#807c7c"/><path d="M485 492.9L488 601.1L621 596.1Z" fill="#605c5c" stroke="#605c5c"/><path d="M598 675.3L506 721.3L601 763.5Z" fill="#848484" stroke="#848484"/><path d="M1604 481.9L1551 359.7L1497 457.9Z" fill="#383434" stroke="#383434"/><path d="M1491 225.4L1364 164.4L1418 263.5Z" fill="#989494" stroke="#989494"/><path d="M1501 947.8L1493 857.6L1368 870.6Z" fill="#807c7c" stroke="#807c7c"/><path d="M1571 775.5L1578 719.3L1484 696.3Z" fill="#706c6c" stroke="#706c6c"/><path d="M1094 0L1105 73.2L1189 63.2Z" fill="#383434" stroke="#383434"/><path d="M1094 0L1019 0L1105 73.2Z" fill="#605c5c" stroke="#605c5c"/><path d="M1105 73.2L1019 0L1013 91.2Z" fill="#484444" stroke="#484444"/><path d="M1195 0L1189 63.2L1285 85.2Z" fill="#484444" stroke="#484444"/><path d="M1195 0L1094 0L1189 63.2Z" fill="#302c2c" stroke="#302c2c"/><path d="M485 492.9L601 467.9L477 402.7Z" fill="#484444" stroke="#484444"/><path d="M601 763.5L502 805.5L627 860.6Z" fill="#a0a4a8" stroke="#a0a4a8"/><path d="M1573 178.4L1491 225.4L1498 280.5Z" fill="#848484" stroke="#848484"/><path d="M1498 280.5L1491 225.4L1418 263.5Z" fill="#504c4c" stroke="#504c4c"/><path d="M477 402.7L601 467.9L603 362.7Z" fill="#989494" stroke="#989494"/><path d="M1058 1080L1213 1080L1103 986.8Z" fill="#605c5c" stroke="#605c5c"/><path d="M1278 994.8L1418 989.8L1368 870.6Z" fill="#383434" stroke="#383434"/><path d="M810 1080L860 1080L809 984.8Z" fill="#484444" stroke="#484444"/><path d="M809 984.8L860 1080L865 969.8Z" fill="#605c5c" stroke="#605c5c"/><path d="M488 601.1L506 721.3L598 675.3Z" fill="#a0a4a8" stroke="#a0a4a8"/><path d="M1571 775.5L1484 696.3L1467 815.5Z" fill="#484444" stroke="#484444"/><path d="M1562 599.1L1604 481.9L1497 457.9Z" fill="#989494" stroke="#989494"/><path d="M1694 514.9L1604 481.9L1562 599.1Z" fill="#807c7c" stroke="#807c7c"/><path d="M1307 0L1195 0L1285 85.2Z" fill="#383434" stroke="#383434"/><path d="M515 913.6L627 947.8L627 860.6Z" fill="#989494" stroke="#989494"/><path d="M627 860.6L627 947.8L725 881.6Z" fill="#302c2c" stroke="#302c2c"/><path d="M806 0L800 121.2L859 116.2Z" fill="#a0a4a8" stroke="#a0a4a8"/><path d="M800 121.2L714 73.2L674 199.4Z" fill="#807c7c" stroke="#807c7c"/><path d="M521 197.4L490 325.5L576 277.5Z" fill="#848484" stroke="#848484"/><path d="M1493 857.6L1571 775.5L1467 815.5Z" fill="#a0a4a8" stroke="#a0a4a8"/><path d="M1019 0L857 0L1013 91.2Z" fill="#a0a4a8" stroke="#a0a4a8"/><path d="M713 1080L810 1080L809 984.8Z" fill="#302c2c" stroke="#302c2c"/><path d="M627 947.8L683 1004.8L725 881.6Z" fill="#484444" stroke="#484444"/><path d="M1362 1080L1418 989.8L1278 994.8Z" fill="#383434" stroke="#383434"/><path d="M1493 857.6L1560 854.6L1571 775.5Z" fill="#504c4c" stroke="#504c4c"/><path d="M490 325.5L477 402.7L603 362.7Z" fill="#605c5c" stroke="#605c5c"/><path d="M485 492.9L418 571.1L488 601.1Z" fill="#484444" stroke="#484444"/><path d="M490 325.5L603 362.7L576 277.5Z" fill="#302c2c" stroke="#302c2c"/><path d="M521 197.4L576 277.5L624 229.4Z" fill="#848484" stroke="#848484"/><path d="M506 721.3L502 805.5L601 763.5Z" fill="#807c7c" stroke="#807c7c"/><path d="M402 793.5L502 805.5L506 721.3Z" fill="#a0a4a8" stroke="#a0a4a8"/><path d="M857 0L806 0L859 116.2Z" fill="#484444" stroke="#484444"/><path d="M1213 1080L1315 1080L1278 994.8Z" fill="#989494" stroke="#989494"/><path d="M1501 947.8L1560 854.6L1493 857.6Z" fill="#989494" stroke="#989494"/><path d="M1604 481.9L1605 323.5L1551 359.7Z" fill="#807c7c" stroke="#807c7c"/><path d="M1551 359.7L1605 323.5L1498 280.5Z" fill="#807c7c" stroke="#807c7c"/><path d="M1371 0L1285 85.2L1393 131.2Z" fill="#848484" stroke="#848484"/><path d="M1418 989.8L1501 947.8L1368 870.6Z" fill="#605c5c" stroke="#605c5c"/><path d="M1502 1080L1501 947.8L1418 989.8Z" fill="#a0a4a8" stroke="#a0a4a8"/><path d="M1371 0L1393 131.2L1499 83.2Z" fill="#807c7c" stroke="#807c7c"/><path d="M1371 0L1307 0L1285 85.2Z" fill="#504c4c" stroke="#504c4c"/><path d="M1315 1080L1362 1080L1278 994.8Z" fill="#383434" stroke="#383434"/><path d="M400 507.9L418 571.1L485 492.9Z" fill="#807c7c" stroke="#807c7c"/><path d="M488 601.1L412 661.3L506 721.3Z" fill="#484444" stroke="#484444"/><path d="M400 507.9L485 492.9L477 402.7Z" fill="#706c6c" stroke="#706c6c"/><path d="M660 0L603 105.2L714 73.2Z" fill="#807c7c" stroke="#807c7c"/><path d="M714 73.2L603 105.2L674 199.4Z" fill="#807c7c" stroke="#807c7c"/><path d="M569 1080L713 1080L683 1004.8Z" fill="#848484" stroke="#848484"/><path d="M683 1004.8L713 1080L809 984.8Z" fill="#807c7c" stroke="#807c7c"/><path d="M569 1080L683 1004.8L627 947.8Z" fill="#605c5c" stroke="#605c5c"/><path d="M603 105.2L521 197.4L624 229.4Z" fill="#706c6c" stroke="#706c6c"/><path d="M377 390.7L400 507.9L477 402.7Z" fill="#807c7c" stroke="#807c7c"/><path d="M1571 775.5L1651 706.3L1578 719.3Z" fill="#484444" stroke="#484444"/><path d="M1578 719.3L1651 706.3L1562 599.1Z" fill="#807c7c" stroke="#807c7c"/><path d="M1710 364.7L1675 311.5L1605 323.5Z" fill="#807c7c" stroke="#807c7c"/><path d="M1717 786.5L1651 706.3L1571 775.5Z" fill="#605c5c" stroke="#605c5c"/><path d="M418 571.1L412 661.3L488 601.1Z" fill="#a0a4a8" stroke="#a0a4a8"/><path d="M430 899.6L515 913.6L502 805.5Z" fill="#484444" stroke="#484444"/><path d="M502 805.5L515 913.6L627 860.6Z" fill="#706c6c" stroke="#706c6c"/><path d="M1499 83.2L1393 131.2L1491 225.4Z" fill="#848484" stroke="#848484"/><path d="M377 390.7L477 402.7L490 325.5Z" fill="#302c2c" stroke="#302c2c"/><path d="M418 571.1L329 558.1L412 661.3Z" fill="#504c4c" stroke="#504c4c"/><path d="M1605 323.5L1573 178.4L1498 280.5Z" fill="#302c2c" stroke="#302c2c"/><path d="M1573 178.4L1499 83.2L1491 225.4Z" fill="#504c4c" stroke="#504c4c"/><path d="M1700 604.1L1694 514.9L1562 599.1Z" fill="#989494" stroke="#989494"/><path d="M1605 323.5L1675 311.5L1573 178.4Z" fill="#504c4c" stroke="#504c4c"/><path d="M1651 706.3L1700 604.1L1562 599.1Z" fill="#807c7c" stroke="#807c7c"/><path d="M806 0L660 0L714 73.2Z" fill="#504c4c" stroke="#504c4c"/><path d="M603 105.2L476 112.2L521 197.4Z" fill="#706c6c" stroke="#706c6c"/><path d="M1710 364.7L1605 323.5L1604 481.9Z" fill="#807c7c" stroke="#807c7c"/><path d="M400 281.5L377 390.7L490 325.5Z" fill="#383434" stroke="#383434"/><path d="M307 792.5L402 793.5L412 661.3Z" fill="#484444" stroke="#484444"/><path d="M400 281.5L490 325.5L521 197.4Z" fill="#504c4c" stroke="#504c4c"/><path d="M412 661.3L402 793.5L506 721.3Z" fill="#383434" stroke="#383434"/><path d="M329 558.1L418 571.1L400 507.9Z" fill="#807c7c" stroke="#807c7c"/><path d="M405 163.4L400 281.5L521 197.4Z" fill="#484444" stroke="#484444"/><path d="M1769 466.9L1710 364.7L1694 514.9Z" fill="#383434" stroke="#383434"/><path d="M1694 514.9L1710 364.7L1604 481.9Z" fill="#807c7c" stroke="#807c7c"/><path d="M430 899.6L469 952.8L515 913.6Z" fill="#484444" stroke="#484444"/><path d="M515 913.6L569 1080L627 947.8Z" fill="#807c7c" stroke="#807c7c"/><path d="M1577 0L1480 0L1499 83.2Z" fill="#706c6c" stroke="#706c6c"/><path d="M1499 83.2L1480 0L1371 0Z" fill="#a0a4a8" stroke="#a0a4a8"/><path d="M1618 131.2L1499 83.2L1573 178.4Z" fill="#302c2c" stroke="#302c2c"/><path d="M1618 131.2L1573 178.4L1681 175.4Z" fill="#989494" stroke="#989494"/><path d="M1362 1080L1502 1080L1418 989.8Z" fill="#706c6c" stroke="#706c6c"/><path d="M1501 947.8L1616 954.8L1560 854.6Z" fill="#605c5c" stroke="#605c5c"/><path d="M1560 854.6L1717 786.5L1571 775.5Z" fill="#383434" stroke="#383434"/><path d="M1651 706.3L1747 688.3L1700 604.1Z" fill="#504c4c" stroke="#504c4c"/><path d="M402 793.5L430 899.6L502 805.5Z" fill="#807c7c" stroke="#807c7c"/><path d="M1558 1080L1616 954.8L1501 947.8Z" fill="#605c5c" stroke="#605c5c"/><path d="M469 952.8L569 1080L515 913.6Z" fill="#504c4c" stroke="#504c4c"/><path d="M320 465.9L400 507.9L377 390.7Z" fill="#848484" stroke="#848484"/><path d="M320 465.9L329 558.1L400 507.9Z" fill="#484444" stroke="#484444"/><path d="M402 793.5L291 914.6L430 899.6Z" fill="#605c5c" stroke="#605c5c"/><path d="M1681 175.4L1573 178.4L1675 311.5Z" fill="#807c7c" stroke="#807c7c"/><path d="M568 0L476 112.2L603 105.2Z" fill="#706c6c" stroke="#706c6c"/><path d="M1717 868.6L1717 786.5L1560 854.6Z" fill="#807c7c" stroke="#807c7c"/><path d="M1700 604.1L1761 609.1L1694 514.9Z" fill="#383434" stroke="#383434"/><path d="M1717 786.5L1747 688.3L1651 706.3Z" fill="#383434" stroke="#383434"/><path d="M1747 688.3L1761 609.1L1700 604.1Z" fill="#302c2c" stroke="#302c2c"/><path d="M660 0L568 0L603 105.2Z" fill="#706c6c" stroke="#706c6c"/><path d="M280 395.7L320 465.9L377 390.7Z" fill="#302c2c" stroke="#302c2c"/><path d="M1761 609.1L1769 466.9L1694 514.9Z" fill="#a0a4a8" stroke="#a0a4a8"/><path d="M1777 167.4L1681 175.4L1675 311.5Z" fill="#383434" stroke="#383434"/><path d="M1815 301.5L1675 311.5L1710 364.7Z" fill="#605c5c" stroke="#605c5c"/><path d="M1618 131.2L1577 0L1499 83.2Z" fill="#504c4c" stroke="#504c4c"/><path d="M1502 1080L1558 1080L1501 947.8Z" fill="#302c2c" stroke="#302c2c"/><path d="M1616 954.8L1717 868.6L1560 854.6Z" fill="#605c5c" stroke="#605c5c"/><path d="M476 112.2L405 163.4L521 197.4Z" fill="#302c2c" stroke="#302c2c"/><path d="M400 281.5L327 259.5L377 390.7Z" fill="#a0a4a8" stroke="#a0a4a8"/><path d="M365 104.2L405 163.4L476 112.2Z" fill="#a0a4a8" stroke="#a0a4a8"/><path d="M469 952.8L518 1080L569 1080Z" fill="#706c6c" stroke="#706c6c"/><path d="M386 1080L518 1080L469 952.8Z" fill="#989494" stroke="#989494"/><path d="M1687 956.8L1717 868.6L1616 954.8Z" fill="#989494" stroke="#989494"/><path d="M1717 786.5L1808 783.5L1747 688.3Z" fill="#807c7c" stroke="#807c7c"/><path d="M1747 688.3L1850 600.1L1761 609.1Z" fill="#383434" stroke="#383434"/><path d="M1663 1080L1687 956.8L1616 954.8Z" fill="#807c7c" stroke="#807c7c"/><path d="M217 658.3L284 672.3L329 558.1Z" fill="#807c7c" stroke="#807c7c"/><path d="M329 558.1L284 672.3L412 661.3Z" fill="#605c5c" stroke="#605c5c"/><path d="M430 899.6L387 980.8L469 952.8Z" fill="#848484" stroke="#848484"/><path d="M1847 487.9L1792 398.7L1769 466.9Z" fill="#807c7c" stroke="#807c7c"/><path d="M1769 466.9L1792 398.7L1710 364.7Z" fill="#706c6c" stroke="#706c6c"/><path d="M1696 78.2L1577 0L1618 131.2Z" fill="#a0a4a8" stroke="#a0a4a8"/><path d="M405 163.4L327 259.5L400 281.5Z" fill="#484444" stroke="#484444"/><path d="M320 465.9L223 513.9L329 558.1Z" fill="#848484" stroke="#848484"/><path d="M284 672.3L307 792.5L412 661.3Z" fill="#605c5c" stroke="#605c5c"/><path d="M327 259.5L280 395.7L377 390.7Z" fill="#484444" stroke="#484444"/><path d="M405 163.4L275 200.4L327 259.5Z" fill="#706c6c" stroke="#706c6c"/><path d="M568 0L489 0L476 112.2Z" fill="#989494" stroke="#989494"/><path d="M291 914.6L387 980.8L430 899.6Z" fill="#848484" stroke="#848484"/><path d="M1717 868.6L1808 783.5L1717 786.5Z" fill="#605c5c" stroke="#605c5c"/><path d="M1761 609.1L1847 487.9L1769 466.9Z" fill="#989494" stroke="#989494"/><path d="M1806 891.6L1808 783.5L1717 868.6Z" fill="#504c4c" stroke="#504c4c"/><path d="M1759 106.2L1696 78.2L1681 175.4Z" fill="#a0a4a8" stroke="#a0a4a8"/><path d="M1681 175.4L1696 78.2L1618 131.2Z" fill="#807c7c" stroke="#807c7c"/><path d="M389 0L365 104.2L476 112.2Z" fill="#807c7c" stroke="#807c7c"/><path d="M207 362.7L223 513.9L280 395.7Z" fill="#a0a4a8" stroke="#a0a4a8"/><path d="M1850 600.1L1847 487.9L1761 609.1Z" fill="#605c5c" stroke="#605c5c"/><path d="M1792 398.7L1815 301.5L1710 364.7Z" fill="#504c4c" stroke="#504c4c"/><path d="M1890 675.3L1850 600.1L1747 688.3Z" fill="#605c5c" stroke="#605c5c"/><path d="M1914 397.7L1815 301.5L1792 398.7Z" fill="#383434" stroke="#383434"/><path d="M229 290.5L280 395.7L327 259.5Z" fill="#807c7c" stroke="#807c7c"/><path d="M280 395.7L223 513.9L320 465.9Z" fill="#807c7c" stroke="#807c7c"/><path d="M284 672.3L217 658.3L307 792.5Z" fill="#706c6c" stroke="#706c6c"/><path d="M1558 1080L1663 1080L1616 954.8Z" fill="#807c7c" stroke="#807c7c"/><path d="M1687 956.8L1806 891.6L1717 868.6Z" fill="#605c5c" stroke="#605c5c"/><path d="M1815 301.5L1777 167.4L1675 311.5Z" fill="#807c7c" stroke="#807c7c"/><path d="M223 513.9L217 658.3L329 558.1Z" fill="#a0a4a8" stroke="#a0a4a8"/><path d="M307 792.5L291 914.6L402 793.5Z" fill="#383434" stroke="#383434"/><path d="M225 896.6L291 914.6L307 792.5Z" fill="#807c7c" stroke="#807c7c"/><path d="M387 980.8L386 1080L469 952.8Z" fill="#605c5c" stroke="#605c5c"/><path d="M1811 972.8L1806 891.6L1687 956.8Z" fill="#989494" stroke="#989494"/><path d="M1808 783.5L1890 675.3L1747 688.3Z" fill="#484444" stroke="#484444"/><path d="M365 104.2L275 200.4L405 163.4Z" fill="#848484" stroke="#848484"/><path d="M319 1080L386 1080L387 980.8Z" fill="#302c2c" stroke="#302c2c"/><path d="M1777 167.4L1759 106.2L1681 175.4Z" fill="#302c2c" stroke="#302c2c"/><path d="M1696 78.2L1688 0L1577 0Z" fill="#706c6c" stroke="#706c6c"/><path d="M1783 0L1688 0L1696 78.2Z" fill="#848484" stroke="#848484"/><path d="M275 200.4L229 290.5L327 259.5Z" fill="#848484" stroke="#848484"/><path d="M223 513.9L181 554.1L217 658.3Z" fill="#848484" stroke="#848484"/><path d="M365 104.2L313 63.2L275 200.4Z" fill="#989494" stroke="#989494"/><path d="M489 0L389 0L476 112.2Z" fill="#605c5c" stroke="#605c5c"/><path d="M229 290.5L207 362.7L280 395.7Z" fill="#807c7c" stroke="#807c7c"/><path d="M1901 784.5L1890 675.3L1808 783.5Z" fill="#807c7c" stroke="#807c7c"/><path d="M1980 523.9L1914 397.7L1847 487.9Z" fill="#504c4c" stroke="#504c4c"/><path d="M1847 487.9L1914 397.7L1792 398.7Z" fill="#383434" stroke="#383434"/><path d="M116 467.9L181 554.1L223 513.9Z" fill="#807c7c" stroke="#807c7c"/><path d="M225 896.6L279 950.8L291 914.6Z" fill="#989494" stroke="#989494"/><path d="M225 896.6L307 792.5L164 798.5Z" fill="#989494" stroke="#989494"/><path d="M291 914.6L279 950.8L387 980.8Z" fill="#383434" stroke="#383434"/><path d="M389 0L313 63.2L365 104.2Z" fill="#807c7c" stroke="#807c7c"/><path d="M275 200.4L210 211.4L229 290.5Z" fill="#a0a4a8" stroke="#a0a4a8"/><path d="M1759 1080L1811 972.8L1687 956.8Z" fill="#989494" stroke="#989494"/><path d="M1806 891.6L1859 875.6L1808 783.5Z" fill="#989494" stroke="#989494"/><path d="M1871 969.8L1859 875.6L1806 891.6Z" fill="#484444" stroke="#484444"/><path d="M164 798.5L307 792.5L217 658.3Z" fill="#484444" stroke="#484444"/><path d="M279 950.8L319 1080L387 980.8Z" fill="#504c4c" stroke="#504c4c"/><path d="M1980 523.9L1847 487.9L1850 600.1Z" fill="#706c6c" stroke="#706c6c"/><path d="M1815 301.5L1901 192.4L1777 167.4Z" fill="#605c5c" stroke="#605c5c"/><path d="M1857 98.2L1783 0L1759 106.2Z" fill="#484444" stroke="#484444"/><path d="M1859 875.6L1901 784.5L1808 783.5Z" fill="#383434" stroke="#383434"/><path d="M1980 617.1L1980 523.9L1850 600.1Z" fill="#a0a4a8" stroke="#a0a4a8"/><path d="M1811 972.8L1871 969.8L1806 891.6Z" fill="#807c7c" stroke="#807c7c"/><path d="M1663 1080L1759 1080L1687 956.8Z" fill="#605c5c" stroke="#605c5c"/><path d="M225 1080L319 1080L279 950.8Z" fill="#848484" stroke="#848484"/><path d="M1914 397.7L1895 280.5L1815 301.5Z" fill="#504c4c" stroke="#504c4c"/><path d="M1759 106.2L1783 0L1696 78.2Z" fill="#989494" stroke="#989494"/><path d="M231 87.2L210 211.4L275 200.4Z" fill="#383434" stroke="#383434"/><path d="M114 319.5L103 381.7L207 362.7Z" fill="#484444" stroke="#484444"/><path d="M207 362.7L116 467.9L223 513.9Z" fill="#a0a4a8" stroke="#a0a4a8"/><path d="M389 0L326 0L313 63.2Z" fill="#848484" stroke="#848484"/><path d="M313 63.2L231 87.2L275 200.4Z" fill="#706c6c" stroke="#706c6c"/><path d="M119 686.3L164 798.5L217 658.3Z" fill="#989494" stroke="#989494"/><path d="M170 1009.8L225 1080L279 950.8Z" fill="#504c4c" stroke="#504c4c"/><path d="M1857 98.2L1759 106.2L1777 167.4Z" fill="#848484" stroke="#848484"/><path d="M103 381.7L116 467.9L207 362.7Z" fill="#605c5c" stroke="#605c5c"/><path d="M91 621.1L119 686.3L217 658.3Z" fill="#989494" stroke="#989494"/><path d="M1911 1080L1871 969.8L1811 972.8Z" fill="#605c5c" stroke="#605c5c"/><path d="M1980 848.6L1980 807.5L1901 784.5Z" fill="#807c7c" stroke="#807c7c"/><path d="M91 621.1L217 658.3L181 554.1Z" fill="#484444" stroke="#484444"/><path d="M1895 280.5L1901 192.4L1815 301.5Z" fill="#484444" stroke="#484444"/><path d="M1980 197.4L1901 192.4L1895 280.5Z" fill="#484444" stroke="#484444"/><path d="M207 0L231 87.2L313 63.2Z" fill="#a0a4a8" stroke="#a0a4a8"/><path d="M114 319.5L207 362.7L229 290.5Z" fill="#807c7c" stroke="#807c7c"/><path d="M1901 192.4L1857 98.2L1777 167.4Z" fill="#807c7c" stroke="#807c7c"/><path d="M1980 617.1L1850 600.1L1890 675.3Z" fill="#a0a4a8" stroke="#a0a4a8"/><path d="M1914 397.7L1980 294.5L1895 280.5Z" fill="#848484" stroke="#848484"/><path d="M1980 617.1L1890 675.3L1980 702.3Z" fill="#383434" stroke="#383434"/><path d="M1980 702.3L1890 675.3L1901 784.5Z" fill="#484444" stroke="#484444"/><path d="M1980 523.9L1980 401.7L1914 397.7Z" fill="#484444" stroke="#484444"/><path d="M116 467.9L91 621.1L181 554.1Z" fill="#989494" stroke="#989494"/><path d="M113 949.8L225 896.6L164 798.5Z" fill="#a0a4a8" stroke="#a0a4a8"/><path d="M114 319.5L229 290.5L210 211.4Z" fill="#706c6c" stroke="#706c6c"/><path d="M116 467.9L0 506.9L91 621.1Z" fill="#807c7c" stroke="#807c7c"/><path d="M1980 807.5L1980 702.3L1901 784.5Z" fill="#807c7c" stroke="#807c7c"/><path d="M125 177.4L114 319.5L210 211.4Z" fill="#a0a4a8" stroke="#a0a4a8"/><path d="M102 810.5L164 798.5L119 686.3Z" fill="#807c7c" stroke="#807c7c"/><path d="M170 1009.8L279 950.8L225 896.6Z" fill="#605c5c" stroke="#605c5c"/><path d="M1980 401.7L1980 294.5L1914 397.7Z" fill="#848484" stroke="#848484"/><path d="M1980 71.2L1856 0L1857 98.2Z" fill="#605c5c" stroke="#605c5c"/><path d="M0 786.5L102 810.5L119 686.3Z" fill="#989494" stroke="#989494"/><path d="M1980 848.6L1901 784.5L1859 875.6Z" fill="#989494" stroke="#989494"/><path d="M1980 71.2L1857 98.2L1901 192.4Z" fill="#989494" stroke="#989494"/><path d="M1857 98.2L1856 0L1783 0Z" fill="#605c5c" stroke="#605c5c"/><path d="M113 949.8L170 1009.8L225 896.6Z" fill="#989494" stroke="#989494"/><path d="M1980 951.8L1980 848.6L1859 875.6Z" fill="#484444" stroke="#484444"/><path d="M129 77.2L125 177.4L231 87.2Z" fill="#504c4c" stroke="#504c4c"/><path d="M231 87.2L125 177.4L210 211.4Z" fill="#706c6c" stroke="#706c6c"/><path d="M0 408.7L116 467.9L103 381.7Z" fill="#807c7c" stroke="#807c7c"/><path d="M326 0L207 0L313 63.2Z" fill="#848484" stroke="#848484"/><path d="M1980 294.5L1980 197.4L1895 280.5Z" fill="#605c5c" stroke="#605c5c"/><path d="M102 810.5L113 949.8L164 798.5Z" fill="#302c2c" stroke="#302c2c"/><path d="M170 1009.8L97 1080L225 1080Z" fill="#302c2c" stroke="#302c2c"/><path d="M1759 1080L1911 1080L1811 972.8Z" fill="#706c6c" stroke="#706c6c"/><path d="M1871 969.8L1980 951.8L1859 875.6Z" fill="#807c7c" stroke="#807c7c"/><path d="M1911 1080L1980 951.8L1871 969.8Z" fill="#484444" stroke="#484444"/><path d="M207 0L129 77.2L231 87.2Z" fill="#807c7c" stroke="#807c7c"/><path d="M0 408.7L103 381.7L0 314.5Z" fill="#605c5c" stroke="#605c5c"/><path d="M102 810.5L65 896.6L113 949.8Z" fill="#706c6c" stroke="#706c6c"/><path d="M113 949.8L97 1080L170 1009.8Z" fill="#989494" stroke="#989494"/><path d="M0 848.6L65 896.6L102 810.5Z" fill="#807c7c" stroke="#807c7c"/><path d="M0 695.3L119 686.3L91 621.1Z" fill="#807c7c" stroke="#807c7c"/><path d="M103 381.7L114 319.5L0 314.5Z" fill="#706c6c" stroke="#706c6c"/><path d="M0 408.7L0 506.9L116 467.9Z" fill="#383434" stroke="#383434"/><path d="M0 506.9L0 615.1L91 621.1Z" fill="#848484" stroke="#848484"/><path d="M0 314.5L114 319.5L0 227.4Z" fill="#504c4c" stroke="#504c4c"/><path d="M0 615.1L0 695.3L91 621.1Z" fill="#807c7c" stroke="#807c7c"/><path d="M1980 197.4L1980 71.2L1901 192.4Z" fill="#504c4c" stroke="#504c4c"/><path d="M0 227.4L114 319.5L125 177.4Z" fill="#a0a4a8" stroke="#a0a4a8"/><path d="M0 695.3L0 786.5L119 686.3Z" fill="#807c7c" stroke="#807c7c"/><path d="M1911 1080L1980 1080L1980 951.8Z" fill="#504c4c" stroke="#504c4c"/><path d="M0 976.8L113 949.8L65 896.6Z" fill="#807c7c" stroke="#807c7c"/><path d="M0 976.8L97 1080L113 949.8Z" fill="#989494" stroke="#989494"/><path d="M0 786.5L0 848.6L102 810.5Z" fill="#484444" stroke="#484444"/><path d="M1980 71.2L1980 0L1856 0Z" fill="#302c2c" stroke="#302c2c"/><path d="M0 77.2L0 227.4L125 177.4Z" fill="#484444" stroke="#484444"/><path d="M207 0L77 0L129 77.2Z" fill="#504c4c" stroke="#504c4c"/><path d="M129 77.2L0 77.2L125 177.4Z" fill="#848484" stroke="#848484"/><path d="M0 848.6L0 976.8L65 896.6Z" fill="#807c7c" stroke="#807c7c"/><path d="M77 0L0 77.2L129 77.2Z" fill="#504c4c" stroke="#504c4c"/><path d="M0 976.8L0 1080L97 1080Z" fill="#504c4c" stroke="#504c4c"/><path d="M77 0L0 0L0 77.2Z" fill="#807c7c" stroke="#807c7c"/></g></svg>