<svg id="visual" viewBox="0 0 1920 1080" width="1920" height="1080" xmlns="http://www.w3.org/2000/svg" xmlns:xlink="http://www.w3.org/1999/xlink" version="1.1"><g stroke-width="1" stroke-linejoin="bevel"><path d="M959 560L927 473L850 569Z" fill="#009d52" stroke="#009d52"></path><path d="M927 473L837 443L850 569Z" fill="#00743d" stroke="#00743d"></path><path d="M927 473L870 397L837 443Z" fill="#00954e" stroke="#00954e"></path><path d="M631 503L751 501L707 313Z" fill="#025c31" stroke="#025c31"></path><path d="M837 443L751 501L850 569Z" fill="#016c39" stroke="#016c39"></path><path d="M1095 492L929 376L927 473Z" fill="#026435" stroke="#026435"></path><path d="M927 473L929 376L870 397Z" fill="#008d49" stroke="#008d49"></path><path d="M917 753L1057 610L959 560Z" fill="#026435" stroke="#026435"></path><path d="M959 560L1095 492L927 473Z" fill="#00a656" stroke="#00a656"></path><path d="M1057 610L1095 492L959 560Z" fill="#008445" stroke="#008445"></path><path d="M691 672L869 746L850 569Z" fill="#009d52" stroke="#009d52"></path><path d="M850 569L917 753L959 560Z" fill="#00743d" stroke="#00743d"></path><path d="M751 501L698 619L850 569Z" fill="#007c41" stroke="#007c41"></path><path d="M869 746L917 753L850 569Z" fill="#00a656" stroke="#00a656"></path><path d="M917 753L1062 724L1057 610Z" fill="#008445" stroke="#008445"></path><path d="M1057 610L1168 496L1095 492Z" fill="#016c39" stroke="#016c39"></path><path d="M698 619L691 672L850 569Z" fill="#009d52" stroke="#009d52"></path><path d="M1227 625L1168 496L1057 610Z" fill="#00743d" stroke="#00743d"></path><path d="M1095 492L1090 334L929 376Z" fill="#00954e" stroke="#00954e"></path><path d="M707 313L751 501L837 443Z" fill="#00a656" stroke="#00a656"></path><path d="M751 501L631 503L698 619Z" fill="#016c39" stroke="#016c39"></path><path d="M698 619L595 633L691 672Z" fill="#03542d" stroke="#03542d"></path><path d="M1167 354L1090 334L1095 492Z" fill="#00743d" stroke="#00743d"></path><path d="M869 746L874 820L917 753Z" fill="#026435" stroke="#026435"></path><path d="M917 753L971 855L1062 724Z" fill="#00954e" stroke="#00954e"></path><path d="M753 808L874 820L869 746Z" fill="#025c31" stroke="#025c31"></path><path d="M853 226L707 313L870 397Z" fill="#007c41" stroke="#007c41"></path><path d="M870 397L707 313L837 443Z" fill="#03542d" stroke="#03542d"></path><path d="M853 226L870 397L929 376Z" fill="#026435" stroke="#026435"></path><path d="M1052 261L929 229L929 376Z" fill="#00743d" stroke="#00743d"></path><path d="M929 229L853 226L929 376Z" fill="#009d52" stroke="#009d52"></path><path d="M1090 334L1052 261L929 376Z" fill="#007c41" stroke="#007c41"></path><path d="M691 672L753 808L869 746Z" fill="#00743d" stroke="#00743d"></path><path d="M1168 496L1167 354L1095 492Z" fill="#025c31" stroke="#025c31"></path><path d="M1090 334L1200 239L1052 261Z" fill="#00a656" stroke="#00a656"></path><path d="M631 503L595 633L698 619Z" fill="#008d49" stroke="#008d49"></path><path d="M691 672L626 712L753 808Z" fill="#009d52" stroke="#009d52"></path><path d="M595 633L626 712L691 672Z" fill="#008445" stroke="#008445"></path><path d="M877 918L971 855L874 820Z" fill="#016c39" stroke="#016c39"></path><path d="M874 820L971 855L917 753Z" fill="#026435" stroke="#026435"></path><path d="M1222 675L1057 610L1062 724Z" fill="#025c31" stroke="#025c31"></path><path d="M1222 675L1227 625L1057 610Z" fill="#016c39" stroke="#016c39"></path><path d="M1168 496L1278 399L1167 354Z" fill="#00a656" stroke="#00a656"></path><path d="M971 855L1032 857L1062 724Z" fill="#016c39" stroke="#016c39"></path><path d="M1219 851L1222 675L1062 724Z" fill="#008d49" stroke="#008d49"></path><path d="M593 266L569 375L707 313Z" fill="#009d52" stroke="#009d52"></path><path d="M707 313L569 375L631 503Z" fill="#00a656" stroke="#00a656"></path><path d="M631 503L450 552L595 633Z" fill="#007c41" stroke="#007c41"></path><path d="M1272 691L1272 568L1227 625Z" fill="#008d49" stroke="#008d49"></path><path d="M1227 625L1272 568L1168 496Z" fill="#026435" stroke="#026435"></path><path d="M1272 568L1285 497L1168 496Z" fill="#026435" stroke="#026435"></path><path d="M736 80L698 204L853 226Z" fill="#008d49" stroke="#008d49"></path><path d="M853 226L698 204L707 313Z" fill="#026435" stroke="#026435"></path><path d="M682 955L877 918L753 808Z" fill="#008d49" stroke="#008d49"></path><path d="M753 808L877 918L874 820Z" fill="#00954e" stroke="#00954e"></path><path d="M971 855L1068 952L1032 857Z" fill="#008445" stroke="#008445"></path><path d="M1285 497L1278 399L1168 496Z" fill="#026435" stroke="#026435"></path><path d="M1167 354L1200 239L1090 334Z" fill="#026435" stroke="#026435"></path><path d="M1219 851L1272 691L1222 675Z" fill="#026435" stroke="#026435"></path><path d="M1222 675L1272 691L1227 625Z" fill="#008d49" stroke="#008d49"></path><path d="M1487 454L1408 390L1285 497Z" fill="#008d49" stroke="#008d49"></path><path d="M698 204L593 266L707 313Z" fill="#00743d" stroke="#00743d"></path><path d="M1280 266L1200 239L1167 354Z" fill="#03542d" stroke="#03542d"></path><path d="M1052 261L983 110L929 229Z" fill="#03542d" stroke="#03542d"></path><path d="M929 229L867 76L853 226Z" fill="#03542d" stroke="#03542d"></path><path d="M1073 131L983 110L1052 261Z" fill="#00743d" stroke="#00743d"></path><path d="M500 269L494 393L569 375Z" fill="#025c31" stroke="#025c31"></path><path d="M569 375L494 393L631 503Z" fill="#007c41" stroke="#007c41"></path><path d="M498 795L581 821L626 712Z" fill="#016c39" stroke="#016c39"></path><path d="M494 682L626 712L595 633Z" fill="#008d49" stroke="#008d49"></path><path d="M626 712L581 821L753 808Z" fill="#016c39" stroke="#016c39"></path><path d="M450 552L494 682L595 633Z" fill="#008d49" stroke="#008d49"></path><path d="M872 1080L914 967L877 918Z" fill="#009d52" stroke="#009d52"></path><path d="M877 918L914 967L971 855Z" fill="#007c41" stroke="#007c41"></path><path d="M1032 857L1219 851L1062 724Z" fill="#007c41" stroke="#007c41"></path><path d="M1200 239L1073 131L1052 261Z" fill="#025c31" stroke="#025c31"></path><path d="M494 393L459 508L631 503Z" fill="#009d52" stroke="#009d52"></path><path d="M1178 913L1219 851L1032 857Z" fill="#008d49" stroke="#008d49"></path><path d="M914 967L1068 952L971 855Z" fill="#008d49" stroke="#008d49"></path><path d="M459 508L450 552L631 503Z" fill="#03542d" stroke="#03542d"></path><path d="M924 0L867 76L983 110Z" fill="#008445" stroke="#008445"></path><path d="M983 110L867 76L929 229Z" fill="#00954e" stroke="#00954e"></path><path d="M553 161L500 269L593 266Z" fill="#007c41" stroke="#007c41"></path><path d="M1278 399L1280 266L1167 354Z" fill="#008d49" stroke="#008d49"></path><path d="M1200 239L1193 91L1073 131Z" fill="#026435" stroke="#026435"></path><path d="M1408 390L1280 266L1278 399Z" fill="#007c41" stroke="#007c41"></path><path d="M1068 952L1178 913L1032 857Z" fill="#016c39" stroke="#016c39"></path><path d="M581 821L682 955L753 808Z" fill="#00743d" stroke="#00743d"></path><path d="M553 161L593 266L698 204Z" fill="#03542d" stroke="#03542d"></path><path d="M593 266L500 269L569 375Z" fill="#03542d" stroke="#03542d"></path><path d="M494 393L388 520L459 508Z" fill="#03542d" stroke="#03542d"></path><path d="M459 508L388 520L450 552Z" fill="#026435" stroke="#026435"></path><path d="M867 76L736 80L853 226Z" fill="#026435" stroke="#026435"></path><path d="M494 682L498 795L626 712Z" fill="#007c41" stroke="#007c41"></path><path d="M581 821L585 976L682 955Z" fill="#025c31" stroke="#025c31"></path><path d="M367 801L498 795L494 682Z" fill="#009d52" stroke="#009d52"></path><path d="M736 80L553 161L698 204Z" fill="#00743d" stroke="#00743d"></path><path d="M366 319L388 520L494 393Z" fill="#026435" stroke="#026435"></path><path d="M450 552L371 618L494 682Z" fill="#008d49" stroke="#008d49"></path><path d="M1178 913L1305 861L1219 851Z" fill="#026435" stroke="#026435"></path><path d="M1219 851L1305 861L1272 691Z" fill="#00a656" stroke="#00a656"></path><path d="M1480 615L1285 497L1272 568Z" fill="#00743d" stroke="#00743d"></path><path d="M1285 497L1408 390L1278 399Z" fill="#00743d" stroke="#00743d"></path><path d="M1458 689L1272 568L1272 691Z" fill="#00a656" stroke="#00a656"></path><path d="M1310 154L1193 91L1200 239Z" fill="#016c39" stroke="#016c39"></path><path d="M1090 0L924 0L983 110Z" fill="#00a656" stroke="#00a656"></path><path d="M1310 154L1200 239L1280 266Z" fill="#026435" stroke="#026435"></path><path d="M1090 0L983 110L1073 131Z" fill="#008d49" stroke="#008d49"></path><path d="M867 76L792 0L736 80Z" fill="#00a656" stroke="#00a656"></path><path d="M388 520L371 618L450 552Z" fill="#008d49" stroke="#008d49"></path><path d="M924 0L792 0L867 76Z" fill="#03542d" stroke="#03542d"></path><path d="M736 80L675 0L553 161Z" fill="#008d49" stroke="#008d49"></path><path d="M497 976L585 976L581 821Z" fill="#007c41" stroke="#007c41"></path><path d="M751 1080L872 1080L877 918Z" fill="#00954e" stroke="#00954e"></path><path d="M497 976L581 821L498 795Z" fill="#00954e" stroke="#00954e"></path><path d="M751 1080L877 918L682 955Z" fill="#026435" stroke="#026435"></path><path d="M914 967L987 1080L1068 952Z" fill="#016c39" stroke="#016c39"></path><path d="M1068 952L1200 1080L1178 913Z" fill="#016c39" stroke="#016c39"></path><path d="M1178 913L1330 950L1305 861Z" fill="#007c41" stroke="#007c41"></path><path d="M872 1080L987 1080L914 967Z" fill="#007c41" stroke="#007c41"></path><path d="M1460 220L1310 154L1280 266Z" fill="#00954e" stroke="#00954e"></path><path d="M1243 0L1090 0L1193 91Z" fill="#007c41" stroke="#007c41"></path><path d="M1193 91L1090 0L1073 131Z" fill="#00a656" stroke="#00a656"></path><path d="M987 1080L1052 1080L1068 952Z" fill="#00a656" stroke="#00a656"></path><path d="M625 1080L751 1080L682 955Z" fill="#009d52" stroke="#009d52"></path><path d="M500 269L366 319L494 393Z" fill="#026435" stroke="#026435"></path><path d="M269 578L322 699L371 618Z" fill="#00a656" stroke="#00a656"></path><path d="M362 220L366 319L500 269Z" fill="#026435" stroke="#026435"></path><path d="M792 0L675 0L736 80Z" fill="#008445" stroke="#008445"></path><path d="M553 161L362 220L500 269Z" fill="#016c39" stroke="#016c39"></path><path d="M1437 799L1458 689L1272 691Z" fill="#009d52" stroke="#009d52"></path><path d="M1458 689L1480 615L1272 568Z" fill="#009d52" stroke="#009d52"></path><path d="M575 0L511 95L553 161Z" fill="#00954e" stroke="#00954e"></path><path d="M1480 615L1487 454L1285 497Z" fill="#00954e" stroke="#00954e"></path><path d="M1408 390L1460 220L1280 266Z" fill="#026435" stroke="#026435"></path><path d="M1330 950L1437 799L1305 861Z" fill="#008d49" stroke="#008d49"></path><path d="M1305 861L1437 799L1272 691Z" fill="#016c39" stroke="#016c39"></path><path d="M1558 747L1551 572L1480 615Z" fill="#007c41" stroke="#007c41"></path><path d="M1200 1080L1330 950L1178 913Z" fill="#03542d" stroke="#03542d"></path><path d="M322 699L494 682L371 618Z" fill="#025c31" stroke="#025c31"></path><path d="M322 699L367 801L494 682Z" fill="#007c41" stroke="#007c41"></path><path d="M367 801L497 976L498 795Z" fill="#03542d" stroke="#03542d"></path><path d="M585 976L625 1080L682 955Z" fill="#00743d" stroke="#00743d"></path><path d="M269 578L371 618L388 520Z" fill="#025c31" stroke="#025c31"></path><path d="M503 1080L625 1080L585 976Z" fill="#008d49" stroke="#008d49"></path><path d="M511 95L362 220L553 161Z" fill="#025c31" stroke="#025c31"></path><path d="M234 505L269 578L388 520Z" fill="#025c31" stroke="#025c31"></path><path d="M675 0L575 0L553 161Z" fill="#008d49" stroke="#008d49"></path><path d="M511 95L390 93L362 220Z" fill="#00a656" stroke="#00a656"></path><path d="M1052 1080L1200 1080L1068 952Z" fill="#03542d" stroke="#03542d"></path><path d="M1310 154L1243 0L1193 91Z" fill="#025c31" stroke="#025c31"></path><path d="M1326 0L1243 0L1310 154Z" fill="#009d52" stroke="#009d52"></path><path d="M234 505L388 520L241 351Z" fill="#008d49" stroke="#008d49"></path><path d="M1559 399L1460 220L1408 390Z" fill="#00954e" stroke="#00954e"></path><path d="M1558 747L1480 615L1458 689Z" fill="#026435" stroke="#026435"></path><path d="M1480 615L1551 572L1487 454Z" fill="#009d52" stroke="#009d52"></path><path d="M1487 454L1559 399L1408 390Z" fill="#00a656" stroke="#00a656"></path><path d="M93 700L287 765L322 699Z" fill="#00743d" stroke="#00743d"></path><path d="M322 699L287 765L367 801Z" fill="#025c31" stroke="#025c31"></path><path d="M367 1080L503 1080L497 976Z" fill="#007c41" stroke="#007c41"></path><path d="M241 351L388 520L366 319Z" fill="#00954e" stroke="#00954e"></path><path d="M165 831L246 857L287 765Z" fill="#00954e" stroke="#00954e"></path><path d="M1575 447L1559 399L1487 454Z" fill="#007c41" stroke="#007c41"></path><path d="M434 0L390 93L511 95Z" fill="#03542d" stroke="#03542d"></path><path d="M362 220L241 351L366 319Z" fill="#007c41" stroke="#007c41"></path><path d="M497 976L503 1080L585 976Z" fill="#007c41" stroke="#007c41"></path><path d="M322 974L497 976L367 801Z" fill="#008445" stroke="#008445"></path><path d="M1551 572L1575 447L1487 454Z" fill="#025c31" stroke="#025c31"></path><path d="M1330 950L1414 977L1437 799Z" fill="#025c31" stroke="#025c31"></path><path d="M1437 799L1558 747L1458 689Z" fill="#026435" stroke="#026435"></path><path d="M1344 1080L1414 977L1330 950Z" fill="#03542d" stroke="#03542d"></path><path d="M1430 81L1326 0L1310 154Z" fill="#016c39" stroke="#016c39"></path><path d="M199 227L241 351L362 220Z" fill="#009d52" stroke="#009d52"></path><path d="M1546 838L1558 747L1437 799Z" fill="#03542d" stroke="#03542d"></path><path d="M1551 572L1636 460L1575 447Z" fill="#00a656" stroke="#00a656"></path><path d="M1555 167L1430 81L1460 220Z" fill="#009d52" stroke="#009d52"></path><path d="M1460 220L1430 81L1310 154Z" fill="#007c41" stroke="#007c41"></path><path d="M1200 1080L1344 1080L1330 950Z" fill="#03542d" stroke="#03542d"></path><path d="M575 0L434 0L511 95Z" fill="#03542d" stroke="#03542d"></path><path d="M390 93L281 107L362 220Z" fill="#00743d" stroke="#00743d"></path><path d="M1534 953L1437 799L1414 977Z" fill="#008445" stroke="#008445"></path><path d="M1534 953L1546 838L1437 799Z" fill="#016c39" stroke="#016c39"></path><path d="M246 857L367 801L287 765Z" fill="#009d52" stroke="#009d52"></path><path d="M246 857L322 974L367 801Z" fill="#025c31" stroke="#025c31"></path><path d="M93 700L322 699L269 578Z" fill="#008445" stroke="#008445"></path><path d="M1575 447L1632 355L1559 399Z" fill="#00a656" stroke="#00a656"></path><path d="M1589 207L1555 167L1460 220Z" fill="#008d49" stroke="#008d49"></path><path d="M1674 587L1636 460L1551 572Z" fill="#03542d" stroke="#03542d"></path><path d="M1647 721L1551 572L1558 747Z" fill="#026435" stroke="#026435"></path><path d="M1540 0L1416 0L1430 81Z" fill="#00954e" stroke="#00954e"></path><path d="M1430 81L1416 0L1326 0Z" fill="#03542d" stroke="#03542d"></path><path d="M434 0L380 0L390 93Z" fill="#008445" stroke="#008445"></path><path d="M1589 207L1460 220L1559 399Z" fill="#009d52" stroke="#009d52"></path><path d="M1636 460L1632 355L1575 447Z" fill="#009d52" stroke="#009d52"></path><path d="M380 0L281 107L390 93Z" fill="#00a656" stroke="#00a656"></path><path d="M110 433L149 575L234 505Z" fill="#007c41" stroke="#007c41"></path><path d="M234 505L149 575L269 578Z" fill="#00954e" stroke="#00954e"></path><path d="M110 433L234 505L241 351Z" fill="#025c31" stroke="#025c31"></path><path d="M1448 1080L1534 953L1414 977Z" fill="#008445" stroke="#008445"></path><path d="M1647 810L1647 721L1558 747Z" fill="#009d52" stroke="#009d52"></path><path d="M1632 355L1589 207L1559 399Z" fill="#016c39" stroke="#016c39"></path><path d="M1555 167L1540 0L1430 81Z" fill="#008445" stroke="#008445"></path><path d="M250 1007L367 1080L322 974Z" fill="#026435" stroke="#026435"></path><path d="M322 974L367 1080L497 976Z" fill="#026435" stroke="#026435"></path><path d="M281 107L199 227L362 220Z" fill="#008445" stroke="#008445"></path><path d="M1647 810L1558 747L1546 838Z" fill="#007c41" stroke="#007c41"></path><path d="M1790 379L1721 287L1632 355Z" fill="#008445" stroke="#008445"></path><path d="M1344 1080L1448 1080L1414 977Z" fill="#00a656" stroke="#00a656"></path><path d="M1647 721L1674 587L1551 572Z" fill="#00954e" stroke="#00954e"></path><path d="M93 700L165 831L287 765Z" fill="#016c39" stroke="#016c39"></path><path d="M246 857L250 1007L322 974Z" fill="#026435" stroke="#026435"></path><path d="M1534 953L1647 810L1546 838Z" fill="#008d49" stroke="#008d49"></path><path d="M1778 631L1758 449L1674 587Z" fill="#026435" stroke="#026435"></path><path d="M1757 831L1647 810L1717 967Z" fill="#009d52" stroke="#009d52"></path><path d="M101 352L110 433L241 351Z" fill="#009d52" stroke="#009d52"></path><path d="M149 575L93 700L269 578Z" fill="#009d52" stroke="#009d52"></path><path d="M138 961L250 1007L246 857Z" fill="#03542d" stroke="#03542d"></path><path d="M119 279L101 352L241 351Z" fill="#03542d" stroke="#03542d"></path><path d="M119 279L241 351L199 227Z" fill="#009d52" stroke="#009d52"></path><path d="M159 140L119 279L199 227Z" fill="#009d52" stroke="#009d52"></path><path d="M159 140L199 227L281 107Z" fill="#007c41" stroke="#007c41"></path><path d="M0 492L149 575L110 433Z" fill="#009d52" stroke="#009d52"></path><path d="M0 573L93 700L149 575Z" fill="#00743d" stroke="#00743d"></path><path d="M165 831L138 961L246 857Z" fill="#026435" stroke="#026435"></path><path d="M1655 152L1555 167L1589 207Z" fill="#03542d" stroke="#03542d"></path><path d="M1655 152L1540 0L1555 167Z" fill="#008445" stroke="#008445"></path><path d="M196 0L159 140L281 107Z" fill="#00743d" stroke="#00743d"></path><path d="M1721 287L1655 152L1589 207Z" fill="#016c39" stroke="#016c39"></path><path d="M1721 287L1589 207L1632 355Z" fill="#009d52" stroke="#009d52"></path><path d="M1758 449L1636 460L1674 587Z" fill="#00a656" stroke="#00a656"></path><path d="M1758 449L1632 355L1636 460Z" fill="#025c31" stroke="#025c31"></path><path d="M1778 631L1674 587L1647 721Z" fill="#007c41" stroke="#007c41"></path><path d="M1448 1080L1579 1080L1534 953Z" fill="#00743d" stroke="#00743d"></path><path d="M1835 757L1778 631L1647 721Z" fill="#008445" stroke="#008445"></path><path d="M0 886L138 961L165 831Z" fill="#009d52" stroke="#009d52"></path><path d="M250 1007L193 1080L367 1080Z" fill="#025c31" stroke="#025c31"></path><path d="M1757 831L1647 721L1647 810Z" fill="#025c31" stroke="#025c31"></path><path d="M380 0L196 0L281 107Z" fill="#009d52" stroke="#009d52"></path><path d="M0 359L101 352L0 285Z" fill="#00954e" stroke="#00954e"></path><path d="M138 961L193 1080L250 1007Z" fill="#008d49" stroke="#008d49"></path><path d="M1920 398L1790 379L1758 449Z" fill="#025c31" stroke="#025c31"></path><path d="M1758 449L1790 379L1632 355Z" fill="#008d49" stroke="#008d49"></path><path d="M1721 287L1752 228L1655 152Z" fill="#009d52" stroke="#009d52"></path><path d="M0 359L110 433L101 352Z" fill="#009d52" stroke="#009d52"></path><path d="M0 359L0 492L110 433Z" fill="#009d52" stroke="#009d52"></path><path d="M93 700L0 886L165 831Z" fill="#03542d" stroke="#03542d"></path><path d="M101 352L119 279L0 285Z" fill="#026435" stroke="#026435"></path><path d="M0 492L0 573L149 575Z" fill="#016c39" stroke="#016c39"></path><path d="M1790 379L1752 228L1721 287Z" fill="#00954e" stroke="#00954e"></path><path d="M1655 152L1665 0L1540 0Z" fill="#026435" stroke="#026435"></path><path d="M1717 967L1647 810L1534 953Z" fill="#00743d" stroke="#00743d"></path><path d="M0 573L0 690L93 700Z" fill="#025c31" stroke="#025c31"></path><path d="M138 961L106 1080L193 1080Z" fill="#03542d" stroke="#03542d"></path><path d="M0 285L119 279L0 118Z" fill="#00743d" stroke="#00743d"></path><path d="M196 0L151 0L159 140Z" fill="#03542d" stroke="#03542d"></path><path d="M1579 1080L1717 967L1534 953Z" fill="#03542d" stroke="#03542d"></path><path d="M1813 148L1665 0L1655 152Z" fill="#03542d" stroke="#03542d"></path><path d="M0 118L119 279L159 140Z" fill="#00954e" stroke="#00954e"></path><path d="M1579 1080L1684 1080L1717 967Z" fill="#007c41" stroke="#007c41"></path><path d="M1920 814L1835 757L1757 831Z" fill="#00743d" stroke="#00743d"></path><path d="M1800 951L1757 831L1717 967Z" fill="#009d52" stroke="#009d52"></path><path d="M1757 831L1835 757L1647 721Z" fill="#03542d" stroke="#03542d"></path><path d="M1778 631L1920 522L1758 449Z" fill="#00954e" stroke="#00954e"></path><path d="M0 954L106 1080L138 961Z" fill="#009d52" stroke="#009d52"></path><path d="M0 690L0 886L93 700Z" fill="#00743d" stroke="#00743d"></path><path d="M1752 228L1813 148L1655 152Z" fill="#00a656" stroke="#00a656"></path><path d="M1920 264L1813 148L1752 228Z" fill="#008445" stroke="#008445"></path><path d="M1920 264L1752 228L1790 379Z" fill="#008445" stroke="#008445"></path><path d="M1765 1080L1800 951L1717 967Z" fill="#008d49" stroke="#008d49"></path><path d="M151 0L0 118L159 140Z" fill="#008445" stroke="#008445"></path><path d="M0 886L0 954L138 961Z" fill="#008445" stroke="#008445"></path><path d="M1920 600L1778 631L1835 757Z" fill="#026435" stroke="#026435"></path><path d="M1920 600L1920 522L1778 631Z" fill="#009d52" stroke="#009d52"></path><path d="M1920 749L1920 600L1835 757Z" fill="#025c31" stroke="#025c31"></path><path d="M1684 1080L1765 1080L1717 967Z" fill="#026435" stroke="#026435"></path><path d="M1920 814L1920 749L1835 757Z" fill="#009d52" stroke="#009d52"></path><path d="M1920 522L1920 398L1758 449Z" fill="#016c39" stroke="#016c39"></path><path d="M1920 814L1757 831L1800 951Z" fill="#008d49" stroke="#008d49"></path><path d="M151 0L0 0L0 118Z" fill="#00743d" stroke="#00743d"></path><path d="M1920 398L1920 264L1790 379Z" fill="#03542d" stroke="#03542d"></path><path d="M0 954L0 1080L106 1080Z" fill="#016c39" stroke="#016c39"></path><path d="M1920 995L1920 814L1800 951Z" fill="#00743d" stroke="#00743d"></path><path d="M1920 114L1833 0L1813 148Z" fill="#016c39" stroke="#016c39"></path><path d="M1813 148L1833 0L1665 0Z" fill="#03542d" stroke="#03542d"></path><path d="M1920 264L1920 114L1813 148Z" fill="#007c41" stroke="#007c41"></path><path d="M1765 1080L1920 995L1800 951Z" fill="#00743d" stroke="#00743d"></path><path d="M1920 114L1920 0L1833 0Z" fill="#00954e" stroke="#00954e"></path><path d="M1765 1080L1920 1080L1920 995Z" fill="#016c39" stroke="#016c39"></path></g></svg>